Coordinates
version=1
nRows=21
nColumns=19
inDegrees=yes

Units are S.I. units (second, meters, Newtons, ...)
If the header above contains a line with 'inDegrees', this indicates whether rotational values are in degrees (yes) or radians (no).

endheader
time	pelvis_tilt	pelvis_list	pelvis_rotation	pelvis_tx	pelvis_ty	pelvis_tz	hip_flexion_r	hip_adduction_r	hip_rotation_r	knee_angle_r	knee_angle_r_beta	ankle_angle_r	hip_flexion_l	hip_adduction_l	hip_rotation_l	knee_angle_l	knee_angle_l_beta	ankle_angle_l
     15.06666667	      1.22549845	    -10.28698192	      5.57464109	      2.40706936	      1.01441140	      0.96677007	     34.30581414	      8.22784887	    -19.96177285	     31.05155341	      0.54195184	     -1.77774845	    -17.02348802	    -14.94422045	      1.89017755	     79.28154959	      1.38372408	    -13.79079691
     15.07333333	      1.57403587	    -10.11158048	      5.01928490	      2.40711392	      1.00956674	      0.96636658	     33.31372027	      8.45484454	    -19.13822332	     32.88080032	      0.57387823	     -0.82540898	    -15.95884789	    -14.40046960	      1.96880090	     82.86526452	      1.44627170	    -12.71413163
     15.08000000	      1.39473501	     -9.77201598	      4.17673339	      2.40687615	      1.00396487	      0.96640662	     32.89948321	      8.65247603	    -17.86049428	     34.88741661	      0.60890029	      0.43521514	    -14.23374418	    -13.67791091	      1.82532313	     86.41874677	      1.50829167	    -11.69234563
     15.08666667	      1.40826608	     -9.73735626	      3.26385880	      2.40652259	      0.99832215	      0.96662892	     32.28165197	      9.24831824	    -16.64341654	     36.92087469	      0.64439083	      2.06144879	    -12.71326276	    -13.45078704	      1.35613437	     89.79358829	      1.56719376	    -10.50072050
     15.09333333	      1.18439989	     -9.67131615	      2.31869292	      2.40581289	      0.99239635	      0.96700928	     31.95257827	      9.82931041	    -15.37850057	     39.11676864	      0.68271641	      4.07143078	    -10.78788070	    -13.28477888	      0.89895543	     93.09517567	      1.62481733	     -9.33979229
     15.10000000	      0.82193735	     -9.71365713	      1.26897566	      2.40483859	      0.98634333	      0.96763911	     31.78182981	     10.59549707	    -14.07492468	     41.39925234	      0.72255326	      6.35436554	     -8.62609441	    -13.34739047	      0.34429276	     96.26900467	      1.68021110	     -8.19030024
     15.10666667	      0.51762374	     -9.83303315	      0.32837579	      2.40356054	      0.98059637	      0.96822829	     31.50332158	     11.41827958	    -12.89714729	     43.65816312	      0.76197869	      8.83077442	     -6.37590356	    -13.63285897	     -0.09695000	     99.29072658	      1.73295010	     -6.94388708
     15.11333333	     -0.24353974	     -9.79313625	     -0.67624867	      2.40187479	      0.97465485	      0.96904288	     31.70153639	     12.09671887	    -11.67912668	     45.98971232	      0.80267190	     11.41828946	     -3.40867676	    -13.83626501	     -0.41578567	    102.20941404	      1.78389080	     -6.02662841
     15.12000000	     -0.88190964	     -9.79097864	     -1.52296043	      2.39993167	      0.96933730	      0.96972277	     31.64539353	     12.76790153	    -10.58421239	     48.14007674	      0.84020284	     14.01394556	     -0.38808350	    -14.14769911	     -0.50886555	    104.90233559	      1.83089115	     -5.10466130
     15.12666667	     -0.47929849	     -9.98476629	     -2.01887153	      2.39796132	      0.96591322	      0.96997350	     30.23113835	     13.46820006	     -9.80182674	     49.92279479	      0.87131714	     16.55087600	      1.60763932	    -14.69505624	     -0.40225751	    107.14549260	      1.87004162	     -4.37597340
     15.13333333	     -2.02547759	     -9.78737977	     -3.04331959	      2.39555586	      0.96058085	      0.97104829	     30.86063838	     14.02751486	     -8.48612628	     51.67486767	      0.90189658	     18.89082319	      5.96967837	    -14.90705649	     -0.32140600	    109.46122778	      1.91045883	     -3.46116521
     15.14000000	     -2.52516774	     -9.61288212	     -3.57983583	      2.39316560	      0.95735374	      0.97145134	     30.08117318	     14.34420158	     -7.49156583	     52.94932934	      0.92414013	     21.11708976	      9.37228075	    -15.00656320	      0.11478127	    111.26347096	      1.94191391	     -2.81318447
     15.14666667	     -2.86836467	     -9.39831577	     -4.07350316	      2.39076460	      0.95501844	      0.97179271	     28.86894605	     14.55894703	     -6.45253611	     53.79769800	      0.93894696	     23.11508383	     12.69090143	    -15.01544260	      0.57097287	    112.68116550	      1.96665734	     -2.25127036
     15.15333333	     -3.05918019	     -9.08633405	     -4.49649906	      2.38847037	      0.95359060	      0.97205142	     27.23294900	     14.59044399	     -5.37518504	     54.21586901	      0.94624542	     24.90176337	     15.89516330	    -14.83050040	      1.04502493	    113.68224579	      1.98412949	     -1.69257194
     15.16000000	     -2.85609834	     -8.79921031	     -4.82828003	      2.38647099	      0.95344502	      0.97223247	     24.85342019	     14.54719148	     -4.26472361	     54.08334372	      0.94393242	     26.42408615	     18.62562368	    -14.57060639	      1.49712920	    114.20201974	      1.99320126	     -1.13063925
     15.16666667	     -2.86360115	     -8.24403882	     -5.10508373	      2.38455990	      0.95348654	      0.97245706	     22.56137060	     14.12291406	     -3.19430783	     53.68479703	      0.93697647	     27.84082075	     21.61197716	    -13.95885185	      1.89826783	    114.37131230	      1.99615597	     -0.55245246
     15.17333333	     -2.91099306	     -7.74420296	     -5.39644941	      2.38293992	      0.95427749	      0.97278126	     20.05388312	     13.72045660	     -2.07419015	     52.75792870	      0.92079956	     28.64127771	     24.54075209	    -13.34444561	      2.25841959	    114.12225919	      1.99180917	      0.04123271
     15.18000000	     -3.03318117	     -7.10375819	     -5.60946535	      2.38157838	      0.95532129	      0.97321208	     17.50956135	     13.09393642	     -1.02856203	     51.55910803	      0.89987619	     29.40695923	     27.46531345	    -12.53217705	      2.55745919	    113.51854331	      1.98127234	      0.67261149
     15.18666667	     -2.65098149	     -5.96998724	     -5.47617944	      2.38061277	      0.95749964	      0.97315659	     14.35964094	     11.67503067	     -0.32746295	     50.12366364	      0.87482296	     30.02724076	     29.69883020	    -10.88455424	      2.72399321	    112.41090351	      1.96194038	      1.34137838
     15.19333333	     -2.96045926	     -5.29957369	     -5.62421893	      2.37988263	      0.95915219	      0.97380927	     11.78680483	     10.96312581	      0.63683441	     48.31324111	      0.84322513	     30.02472648	     32.52104671	     -9.98317683	      2.90566766	    111.11454306	      1.93931462	      2.04276195
     15.20000000	     -2.29459378	     -4.22985073	     -5.31918421	      2.38004353	      0.96261487	      0.97412446	      8.02915345	      9.47895195	      0.91588823	     46.12271323	      0.80499321	     29.70518834	     33.98922935	     -8.42026754	      2.91962242	    109.23677559	      1.90654140	      2.81412016
